<svg version="1.1" id="Layer_1" xmlns="http://www.w3.org/2000/svg" xmlns:xlink="http://www.w3.org/1999/xlink" x="0px" y="0px"
	 viewBox="0 0 512 512" style="enable-background:new 0 0 512 512;" xml:space="preserve">
<g>
	<polygon style="fill:#F29C1F;" points="167.724,203.034 79.448,150.069 79.448,52.966 167.724,0 256,52.966 256,150.069 	"/>
	<polygon style="fill:#E57E25;" points="344.276,203.034 256,150.069 256,52.966 344.276,0 432.552,52.966 432.552,150.069 	"/>
	<polygon style="fill:#F29C1F;" points="167.724,512 79.448,459.034 79.448,361.931 167.724,308.966 256,361.931 256,459.034 	"/>
	<polygon style="fill:#E57E25;" points="344.276,512 256,459.034 256,361.931 344.276,308.966 432.552,361.931 432.552,459.034 	"/>
	<polygon style="fill:#D25627;" points="79.448,361.931 0,308.966 0,203.034 79.448,150.069 167.724,203.034 167.724,308.966 	"/>
	<polygon style="fill:#F0C419;" points="256,361.931 167.724,308.966 167.724,203.034 256,150.069 344.276,203.034 344.276,308.966 
			"/>
	<polygon style="fill:#D25627;" points="432.552,361.931 344.276,308.966 344.276,203.034 432.552,150.069 512,203.034 512,308.966 
			"/>
</g>
<g>
</g>
<g>
</g>
<g>
</g>
<g>
</g>
<g>
</g>
<g>
</g>
<g>
</g>
<g>
</g>
<g>
</g>
<g>
</g>
<g>
</g>
<g>
</g>
<g>
</g>
<g>
</g>
<g>
</g>
</svg>